<svg xmlns="http://www.w3.org/2000/svg" xmlns:xlink="http://www.w3.org/1999/xlink" width="1303.7" height="885.2"><g transform="translate(-7.5 -140)"><path d="M0 0h1323.2v1870.4H0z" fill="#fff"/><path d="M310 372c0 28.72-24.62 52-55 52s-55-23.28-55-52 24.62-52 55-52 55 23.28 55 52z" stroke="#000" stroke-width="2" fill="#99d2f2"/><use xlink:href="#a" transform="matrix(1,0,0,1,200,320) translate(19.57999999999999 56.65)"/><path d="M950 581c0 28.72-24.62 52-55 52s-55-23.28-55-52 24.62-52 55-52 55 23.28 55 52z" stroke="#000" stroke-width="2" fill="#99d2f2"/><use xlink:href="#b" transform="matrix(1,0,0,1,840,529) translate(48.529999999999994 56.65)"/><path d="M310 372h70c2.76 0 5 2.24 5 5v199c0 2.76 2.24 5 5 5h70" stroke="#000" stroke-width="2" fill="none"/><path d="M310 373h-.05l.05-1v-1zM460 581l-14.27 4.64v-9.28z"/><path d="M460.04 579.96L460 581l.04 1.04-15.3 4.97v-12zm-13.3 4.3l10.02-3.26-10.03-3.26z"/><path fill="#fff" d="M334.1 393.54h101.8v21.6H334.1z"/><use xlink:href="#c" transform="matrix(1,0,0,1,334.1,393.5391959798995) translate(0 14.4)"/><use xlink:href="#d" transform="matrix(1,0,0,1,334.1,393.5391959798995) translate(66.80000000000001 14.4)"/><path fill="#fff" d="M309.13 447.66h151.75v21.6H309.13z"/><use xlink:href="#e" transform="matrix(1,0,0,1,309.125,447.6597989949749) translate(0 14.4)"/><use xlink:href="#f" transform="matrix(1,0,0,1,309.125,447.6597989949749) translate(79.9 14.4)"/><path fill="#fff" d="M305.13 494.2h159.75v21.6H305.13z"/><use xlink:href="#g" transform="matrix(1,0,0,1,305.125,494.2000000000001) translate(0 14.4)"/><use xlink:href="#f" transform="matrix(1,0,0,1,305.125,494.2000000000001) translate(87.9 14.4)"/><path d="M604 521c8.84 0 16 26.86 16 60s-7.16 60-16 60H476c-8.84 0-16-26.86-16-60s7.16-60 16-60z" stroke="#000" stroke-width="2" fill="#99d2f2"/><path d="M604 641c-8.84 0-16-26.86-16-60s7.16-60 16-60" stroke="#000" stroke-width="2" fill="none"/><use xlink:href="#h" transform="matrix(1,0,0,1,460,521) translate(53.055 51.9)"/><use xlink:href="#i" transform="matrix(1,0,0,1,460,521) translate(15.104999999999999 73.5)"/><path d="M600 566.25c0-2.76 2.24-5 5-5h170.5c2.76 0 5-2.24 5-5v-9.75c0-2.76 1.58-3.42 3.54-1.46l32.42 32.42c1.96 1.96 1.96 5.12 0 7.08l-32.42 32.42c-1.96 1.96-3.54 1.3-3.54-1.46v-9.75c0-2.76-2.24-5-5-5H605c-2.76 0-5-2.24-5-5z" fill="#ff8000"/><use xlink:href="#j" transform="matrix(1,0,0,1,600,541.5) translate(9.904999999999996 44.025)"/><use xlink:href="#k" transform="matrix(1,0,0,1,600,541.5) translate(85.75500000000001 44.025)"/><use xlink:href="#l" transform="matrix(1,0,0,1,600,541.5) translate(101.25500000000001 44.025)"/><use xlink:href="#m" transform="matrix(1,0,0,1,600,541.5) translate(141.255 44.025)"/><path d="M180 268c0 6.63-26.86 12-60 12s-60-5.37-60-12v-96c0-6.63 26.86-12 60-12s60 5.37 60 12z" stroke="#999" stroke-width="2" fill="#ccc"/><path d="M180 172c0 6.63-26.86 12-60 12s-60-5.37-60-12" stroke="#999" stroke-width="2" fill="none"/><use xlink:href="#n" transform="matrix(1,0,0,1,60,189) translate(45.505 48.525)"/><path d="M965 832.1c0 9.33-26.86 16.9-60 16.9s-60-7.57-60-16.9V696.9c0-9.33 26.86-16.9 60-16.9s60 7.57 60 16.9z" stroke="#000" stroke-width="2" fill="#fcc438"/><path d="M965 696.9c0 9.33-26.86 16.9-60 16.9s-60-7.57-60-16.9" stroke="#000" stroke-width="2" fill="none"/><use xlink:href="#o" transform="matrix(1,0,0,1,845,718.8) translate(40.57999999999999 59.43125)"/><use xlink:href="#i" transform="matrix(1,0,0,1,845,718.8) translate(7.604999999999999 81.03125)"/><path d="M950 581h95c2.76 0 5 2.24 5 5v173.5c0 2.76-2.24 5-5 5h-80" stroke="#000" stroke-width="2" fill="none"/><path d="M950 582h-.05l.05-1v-1zM979.27 769.14L965 764.5l14.27-4.64z"/><path d="M980.27 770.5L965 765.56v-2.1l15.27-4.96zm-12.03-6l10.03 3.26v-6.52z"/><path fill="#fff" d="M1025.5 654.45h49v21.6h-49z"/><use xlink:href="#p" transform="matrix(1,0,0,1,1025.5,654.45) translate(0 14.4)"/><path d="M116 868.22c2.2-1.67 5.8-1.67 8 0l84.5 63.96c2.2 1.67 2.2 4.37 0 6.04l-84.5 63.96c-2.2 1.67-5.8 1.67-8 0l-84.5-63.96c-2.2-1.67-2.2-4.37 0-6.04z" stroke="#000" stroke-width="2" fill="#7ab648"/><use xlink:href="#q" transform="matrix(1,0,0,1,27.5,865.1999999999999) translate(38.57999999999999 63.41)"/><use xlink:href="#r" transform="matrix(1,0,0,1,27.5,865.1999999999999) translate(58.529999999999994 85.01)"/><use xlink:href="#s" transform="matrix(1,0,0,1,27.5,865.1999999999999) translate(78.53 85.01)"/><path d="M845 764.5l-7.22-3.6-7-3.13-6.82-2.7-6.7-2.35-6.6-2-6.6-1.7-6.57-1.42-6.63-1.13-6.7-.86-6.85-.57-7.03-.3-7.3-.02-7.6.32-8 .66-8.53 1.07-9.22 1.55-10.1 2.14-11.33 2.9-13 3.9-15.62 5.43-20.08 7.94-30.5 13.62-180.96 86.43L406.62 887l-37.67 13.08-35.9 10.78-35.1 8.97-34.97 7.37-35.26 5.9-15.22 2.1" stroke="#000" stroke-width="2" fill="none"/><path d="M845 765.6l-.43-.2.43-.9zM227.26 937.86l-14.76-2.66 13.5-6.53z"/><path d="M228.44 939.08L210 935.76l-.02-.45 16.83-8.13zm-12.73-4.32l10.4 1.87-.9-6.46z"/><path fill="#fff" d="M724.26 733.92h87.85v21.6h-87.84z"/><use xlink:href="#t" transform="matrix(1,0,0,1,724.2633177655928,733.9197444088742) translate(0 14.4)"/><path fill="#fff" d="M616.98 759.7h85.7v21.6h-85.7z"/><use xlink:href="#u" transform="matrix(1,0,0,1,616.97814014156,759.6913461961378) translate(0 14.4)"/><path fill="#fff" d="M490.1 801.83h158.85v21.6H490.1z"/><use xlink:href="#v" transform="matrix(1,0,0,1,490.09682473979143,801.8320078083993) translate(0 14.4)"/><use xlink:href="#r" transform="matrix(1,0,0,1,490.09682473979143,801.8320078083993) translate(90.9 14.4)"/><use xlink:href="#w" transform="matrix(1,0,0,1,490.09682473979143,801.8320078083993) translate(110.9 14.4)"/><path fill="#fff" d="M247.28 900.92h164.85v21.6H247.28z"/><use xlink:href="#x" transform="matrix(1,0,0,1,247.27711661220354,900.9182855842027) translate(0 14.4)"/><use xlink:href="#y" transform="matrix(1,0,0,1,247.27711661220354,900.9182855842027) translate(86.9 14.4)"/><path fill="#fff" d="M405.22 853.6h111.85v21.6H405.22z"/><g><use xlink:href="#z" transform="matrix(1,0,0,1,405.219676908878,853.5965593237177) translate(0 14.4)"/><use xlink:href="#A" transform="matrix(1,0,0,1,405.219676908878,853.5965593237177) translate(62.95 14.4)"/></g><path d="M120 280v585.2" fill="none"/><path d="M121.5 280c0 .83-.67 1.5-1.5 1.5s-1.5-.67-1.5-1.5.67-1.5 1.5-1.5 1.5.67 1.5 1.5zm0 11.94c0 .83-.67 1.5-1.5 1.5s-1.5-.67-1.5-1.5.67-1.5 1.5-1.5 1.5.67 1.5 1.5zm0 11.95c0 .8-.67 1.5-1.5 1.5s-1.5-.7-1.5-1.5c0-.84.67-1.5 1.5-1.5s1.5.66 1.5 1.5zm0 11.93c0 .83-.67 1.5-1.5 1.5s-1.5-.67-1.5-1.5.67-1.5 1.5-1.5 1.5.67 1.5 1.5zm0 11.94c0 .83-.67 1.5-1.5 1.5s-1.5-.67-1.5-1.5.67-1.5 1.5-1.5 1.5.67 1.5 1.5zm0 11.94c0 .84-.67 1.5-1.5 1.5s-1.5-.66-1.5-1.5c0-.8.67-1.5 1.5-1.5s1.5.7 1.5 1.5zm0 11.96c0 .83-.67 1.5-1.5 1.5s-1.5-.67-1.5-1.5.67-1.5 1.5-1.5 1.5.67 1.5 1.5zm0 11.94c0 .83-.67 1.5-1.5 1.5s-1.5-.67-1.5-1.5.67-1.5 1.5-1.5 1.5.67 1.5 1.5zm0 11.94c0 .83-.67 1.5-1.5 1.5s-1.5-.67-1.5-1.5.67-1.5 1.5-1.5 1.5.67 1.5 1.5zm0 11.95c0 .8-.67 1.5-1.5 1.5s-1.5-.7-1.5-1.5c0-.84.67-1.5 1.5-1.5s1.5.66 1.5 1.5zm0 11.93c0 .83-.67 1.5-1.5 1.5s-1.5-.67-1.5-1.5.67-1.5 1.5-1.5 1.5.67 1.5 1.5zm0 11.94c0 .83-.67 1.5-1.5 1.5s-1.5-.67-1.5-1.5.67-1.5 1.5-1.5 1.5.67 1.5 1.5zm0 11.94c0 .84-.67 1.5-1.5 1.5s-1.5-.66-1.5-1.5c0-.8.67-1.5 1.5-1.5s1.5.7 1.5 1.5zm0 11.96c0 .83-.67 1.5-1.5 1.5s-1.5-.67-1.5-1.5.67-1.5 1.5-1.5 1.5.67 1.5 1.5zm0 11.94c0 .83-.67 1.5-1.5 1.5s-1.5-.67-1.5-1.5.67-1.5 1.5-1.5 1.5.67 1.5 1.5zm0 11.94c0 .83-.67 1.5-1.5 1.5s-1.5-.67-1.5-1.5.67-1.5 1.5-1.5 1.5.67 1.5 1.5zm0 11.95c0 .8-.67 1.5-1.5 1.5s-1.5-.7-1.5-1.5c0-.84.67-1.5 1.5-1.5s1.5.66 1.5 1.5zm0 11.93c0 .83-.67 1.5-1.5 1.5s-1.5-.67-1.5-1.5.67-1.5 1.5-1.5 1.5.67 1.5 1.5zm0 11.94c0 .83-.67 1.5-1.5 1.5s-1.5-.67-1.5-1.5.67-1.5 1.5-1.5 1.5.67 1.5 1.5zm0 11.94c0 .84-.67 1.5-1.5 1.5s-1.5-.66-1.5-1.5c0-.8.67-1.5 1.5-1.5s1.5.7 1.5 1.5zm0 11.96c0 .83-.67 1.5-1.5 1.5s-1.5-.67-1.5-1.5.67-1.5 1.5-1.5 1.5.67 1.5 1.5zm0 11.94c0 .83-.67 1.5-1.5 1.5s-1.5-.67-1.5-1.5.67-1.5 1.5-1.5 1.5.67 1.5 1.5zm0 11.94c0 .83-.67 1.5-1.5 1.5s-1.5-.67-1.5-1.5.67-1.5 1.5-1.5 1.5.67 1.5 1.5zm0 11.95c0 .8-.67 1.5-1.5 1.5s-1.5-.7-1.5-1.5c0-.84.67-1.5 1.5-1.5s1.5.66 1.5 1.5zm0 11.93c0 .83-.67 1.5-1.5 1.5s-1.5-.67-1.5-1.5.67-1.5 1.5-1.5 1.5.67 1.5 1.5zm0 11.94c0 .83-.67 1.5-1.5 1.5s-1.5-.67-1.5-1.5.67-1.5 1.5-1.5 1.5.67 1.5 1.5zm0 11.94c0 .84-.67 1.5-1.5 1.5s-1.5-.66-1.5-1.5c0-.8.67-1.5 1.5-1.5s1.5.7 1.5 1.5zm0 11.96c0 .83-.67 1.5-1.5 1.5s-1.5-.67-1.5-1.5.67-1.5 1.5-1.5 1.5.67 1.5 1.5zm0 11.94c0 .83-.67 1.5-1.5 1.5s-1.5-.67-1.5-1.5.67-1.5 1.5-1.5 1.5.67 1.5 1.5zm0 11.94c0 .83-.67 1.5-1.5 1.5s-1.5-.67-1.5-1.5.67-1.5 1.5-1.5 1.5.67 1.5 1.5zm0 11.95c0 .8-.67 1.5-1.5 1.5s-1.5-.7-1.5-1.5c0-.84.67-1.5 1.5-1.5s1.5.66 1.5 1.5zm0 11.93c0 .83-.67 1.5-1.5 1.5s-1.5-.67-1.5-1.5.67-1.5 1.5-1.5 1.5.67 1.5 1.5zm0 11.94c0 .83-.67 1.5-1.5 1.5s-1.5-.67-1.5-1.5.67-1.5 1.5-1.5 1.5.67 1.5 1.5zm0 11.94c0 .84-.67 1.5-1.5 1.5s-1.5-.66-1.5-1.5c0-.8.67-1.5 1.5-1.5s1.5.7 1.5 1.5zm0 11.96c0 .83-.67 1.5-1.5 1.5s-1.5-.67-1.5-1.5.67-1.5 1.5-1.5 1.5.67 1.5 1.5zm0 11.94c0 .83-.67 1.5-1.5 1.5s-1.5-.67-1.5-1.5.67-1.5 1.5-1.5 1.5.67 1.5 1.5zm0 11.94c0 .83-.67 1.5-1.5 1.5s-1.5-.67-1.5-1.5.67-1.5 1.5-1.5 1.5.67 1.5 1.5zm0 11.95c0 .8-.67 1.5-1.5 1.5s-1.5-.7-1.5-1.5c0-.84.67-1.5 1.5-1.5s1.5.66 1.5 1.5zm0 11.93c0 .83-.67 1.5-1.5 1.5s-1.5-.67-1.5-1.5.67-1.5 1.5-1.5 1.5.67 1.5 1.5zm0 11.94c0 .83-.67 1.5-1.5 1.5s-1.5-.67-1.5-1.5.67-1.5 1.5-1.5 1.5.67 1.5 1.5zm0 11.94c0 .84-.67 1.5-1.5 1.5s-1.5-.66-1.5-1.5c0-.8.67-1.5 1.5-1.5s1.5.7 1.5 1.5zm0 11.96c0 .83-.67 1.5-1.5 1.5s-1.5-.67-1.5-1.5.67-1.5 1.5-1.5 1.5.67 1.5 1.5zm0 11.94c0 .83-.67 1.5-1.5 1.5s-1.5-.67-1.5-1.5.67-1.5 1.5-1.5 1.5.67 1.5 1.5zm0 11.94c0 .83-.67 1.5-1.5 1.5s-1.5-.67-1.5-1.5.67-1.5 1.5-1.5 1.5.67 1.5 1.5zm0 11.95c0 .8-.67 1.5-1.5 1.5s-1.5-.7-1.5-1.5c0-.84.67-1.5 1.5-1.5s1.5.66 1.5 1.5zm0 11.93c0 .83-.67 1.5-1.5 1.5s-1.5-.67-1.5-1.5.67-1.5 1.5-1.5 1.5.67 1.5 1.5zm0 11.94c0 .83-.67 1.5-1.5 1.5s-1.5-.67-1.5-1.5.67-1.5 1.5-1.5 1.5.67 1.5 1.5zm0 11.94c0 .84-.67 1.5-1.5 1.5s-1.5-.66-1.5-1.5c0-.8.67-1.5 1.5-1.5s1.5.7 1.5 1.5zm0 11.96c0 .83-.67 1.5-1.5 1.5s-1.5-.67-1.5-1.5.67-1.5 1.5-1.5 1.5.67 1.5 1.5zm0 11.94c0 .83-.67 1.5-1.5 1.5s-1.5-.67-1.5-1.5.67-1.5 1.5-1.5 1.5.67 1.5 1.5z" fill="#7ab648"/><path d="M120 280h-1.5v-.06zm1.5 0H120l1.5-.05zM121.5 867.2l-1.5-.23-1.5.22v-2h3z" fill="#7ab648"/><path d="M180 220h70c2.76 0 5 2.24 5 5v95" stroke="#000" stroke-width="2" fill="none"/><path d="M255 320l-4.64-14.27h9.28z"/><path d="M256.04 320.05L255 320h-1.05L249 304.74h12zm-4.3-13.32l3.26 10.03 3.26-10.03z"/><path d="M1259.2 633c17.67 0 32 15 32 33.5s-14.33 33.5-32 33.5h-96c-17.67 0-32-15-32-33.5s14.33-33.5 32-33.5z" stroke="#000" stroke-width="2" fill="#fff"/><g><use xlink:href="#B" transform="matrix(1,0,0,1,1131.1999999999998,633) translate(37.745740740740736 27.100694444444443)"/><use xlink:href="#C" transform="matrix(1,0,0,1,1131.1999999999998,633) translate(49.3908024691358 45.767361111111114)"/></g><path d="M1131.2 666.5H1090" stroke="#000" stroke-width="2" fill="none"/><path d="M1131.2 666.5l.04 1h-.04v-2h.07z"/><defs><path d="M195 0l-74-108L45 0H8l94-129-87-119h37l69 98 67-98h37l-84 118L233 0h-38" id="D"/><path d="M240 0l2-218c-23 76-54 145-80 218h-23L58-218 59 0H30v-248h44l77 211c21-75 51-140 76-211h43V0h-30" id="E"/><path d="M30 0v-248h33v221h125V0H30" id="F"/><path d="M16-82v-28h88v28H16" id="G"/><path d="M127-220V0H93v-220H8v-28h204v28h-85" id="H"/><path d="M30 0v-248h187v28H63v79h144v27H63v87h162V0H30" id="I"/><path d="M33 0v-248h34V0H33" id="J"/><g id="a"><use transform="matrix(0.05,0,0,0.05,0,0)" xlink:href="#D"/><use transform="matrix(0.05,0,0,0.05,12,0)" xlink:href="#E"/><use transform="matrix(0.05,0,0,0.05,26.950000000000003,0)" xlink:href="#F"/><use transform="matrix(0.05,0,0,0.05,36.95,0)" xlink:href="#G"/><use transform="matrix(0.05,0,0,0.05,42.900000000000006,0)" xlink:href="#H"/><use transform="matrix(0.05,0,0,0.05,53.85,0)" xlink:href="#I"/><use transform="matrix(0.05,0,0,0.05,65.85000000000001,0)" xlink:href="#J"/></g><path d="M233-177c-1 41-23 64-60 70L243 0h-38l-65-103H63V0H30v-248c88 3 205-21 203 71zM63-129c60-2 137 13 137-47 0-61-80-42-137-45v92" id="K"/><use transform="matrix(0.05,0,0,0.05,0,0)" xlink:href="#K" id="b"/><path d="M30-248c87 1 191-15 191 75 0 78-77 80-158 76V0H30v-248zm33 125c57 0 124 11 124-50 0-59-68-47-124-48v98" id="L"/><path d="M114-163C36-179 61-72 57 0H25l-1-190h30c1 12-1 29 2 39 6-27 23-49 58-41v29" id="M"/><path d="M24-231v-30h32v30H24zM24 0v-190h32V0H24" id="N"/><path d="M210-169c-67 3-38 105-44 169h-31v-121c0-29-5-50-35-48C34-165 62-65 56 0H25l-1-190h30c1 10-1 24 2 32 10-44 99-50 107 0 11-21 27-35 58-36 85-2 47 119 55 194h-31v-121c0-29-5-49-35-48" id="O"/><path d="M141-36C126-15 110 5 73 4 37 3 15-17 15-53c-1-64 63-63 125-63 3-35-9-54-41-54-24 1-41 7-42 31l-33-3c5-37 33-52 76-52 45 0 72 20 72 64v82c-1 20 7 32 28 27v20c-31 9-61-2-59-35zM48-53c0 20 12 33 32 33 41-3 63-29 60-74-43 2-92-5-92 41" id="P"/><path d="M179-190L93 31C79 59 56 82 12 73V49c39 6 53-20 64-50L1-190h34L92-34l54-156h33" id="Q"/><g id="c"><use transform="matrix(0.05,0,0,0.05,0,0)" xlink:href="#L"/><use transform="matrix(0.05,0,0,0.05,12,0)" xlink:href="#M"/><use transform="matrix(0.05,0,0,0.05,17.95,0)" xlink:href="#N"/><use transform="matrix(0.05,0,0,0.05,21.9,0)" xlink:href="#O"/><use transform="matrix(0.05,0,0,0.05,36.85,0)" xlink:href="#P"/><use transform="matrix(0.05,0,0,0.05,46.85,0)" xlink:href="#M"/><use transform="matrix(0.05,0,0,0.05,52.800000000000004,0)" xlink:href="#Q"/></g><path d="M85-194c31 0 48 13 60 33l-1-100h32l1 261h-30c-2-10 0-23-3-31C134-8 116 4 85 4 32 4 16-35 15-94c0-66 23-100 70-100zm9 24c-40 0-46 34-46 75 0 40 6 74 45 74 42 0 51-32 51-76 0-42-9-74-50-73" id="R"/><path d="M59-47c-2 24 18 29 38 22v24C64 9 27 4 27-40v-127H5v-23h24l9-43h21v43h35v23H59v120" id="S"/><g id="d"><use transform="matrix(0.05,0,0,0.05,0,0)" xlink:href="#R"/><use transform="matrix(0.05,0,0,0.05,10,0)" xlink:href="#P"/><use transform="matrix(0.05,0,0,0.05,20,0)" xlink:href="#S"/><use transform="matrix(0.05,0,0,0.05,25,0)" xlink:href="#P"/></g><path d="M140-251c81 0 123 46 123 126C263-46 219 4 140 4 59 4 17-45 17-125s42-126 123-126zm0 227c63 0 89-41 89-101s-29-99-89-99c-61 0-89 39-89 99S79-25 140-24" id="T"/><path d="M115-194c53 0 69 39 70 98 0 66-23 100-70 100C84 3 66-7 56-30L54 0H23l1-261h32v101c10-23 28-34 59-34zm-8 174c40 0 45-34 45-75 0-40-5-75-45-74-42 0-51 32-51 76 0 43 10 73 51 73" id="U"/><path d="M24-231v-30h32v30H24zM-9 49c24 4 33-6 33-30v-209h32V24c2 40-23 58-65 49V49" id="V"/><path d="M100-194c63 0 86 42 84 106H49c0 40 14 67 53 68 26 1 43-12 49-29l28 8c-11 28-37 45-77 45C44 4 14-33 15-96c1-61 26-98 85-98zm52 81c6-60-76-77-97-28-3 7-6 17-6 28h103" id="W"/><path d="M96-169c-40 0-48 33-48 73s9 75 48 75c24 0 41-14 43-38l32 2c-6 37-31 61-74 61-59 0-76-41-82-99-10-93 101-131 147-64 4 7 5 14 7 22l-32 3c-4-21-16-35-41-35" id="X"/><path d="M108 0H70L1-190h34L89-25l56-165h34" id="Y"/><g id="e"><use transform="matrix(0.05,0,0,0.05,0,0)" xlink:href="#T"/><use transform="matrix(0.05,0,0,0.05,14,0)" xlink:href="#U"/><use transform="matrix(0.05,0,0,0.05,24,0)" xlink:href="#V"/><use transform="matrix(0.05,0,0,0.05,27.950000000000003,0)" xlink:href="#W"/><use transform="matrix(0.05,0,0,0.05,37.95,0)" xlink:href="#X"/><use transform="matrix(0.05,0,0,0.05,46.95,0)" xlink:href="#S"/><use transform="matrix(0.05,0,0,0.05,51.95,0)" xlink:href="#N"/><use transform="matrix(0.05,0,0,0.05,55.900000000000006,0)" xlink:href="#Y"/><use transform="matrix(0.05,0,0,0.05,64.9,0)" xlink:href="#W"/></g><path d="M24 0v-261h32V0H24" id="Z"/><path d="M135-143c-3-34-86-38-87 0 15 53 115 12 119 90S17 21 10-45l28-5c4 36 97 45 98 0-10-56-113-15-118-90-4-57 82-63 122-42 12 7 21 19 24 35" id="aa"/><g id="f"><use transform="matrix(0.05,0,0,0.05,0,0)" xlink:href="#Y"/><use transform="matrix(0.05,0,0,0.05,9,0)" xlink:href="#P"/><use transform="matrix(0.05,0,0,0.05,19,0)" xlink:href="#M"/><use transform="matrix(0.05,0,0,0.05,24.95,0)" xlink:href="#N"/><use transform="matrix(0.05,0,0,0.05,28.899999999999995,0)" xlink:href="#P"/><use transform="matrix(0.05,0,0,0.05,38.9,0)" xlink:href="#U"/><use transform="matrix(0.05,0,0,0.05,48.9,0)" xlink:href="#Z"/><use transform="matrix(0.05,0,0,0.05,52.85,0)" xlink:href="#W"/><use transform="matrix(0.05,0,0,0.05,62.85,0)" xlink:href="#aa"/></g><path d="M185-189c-5-48-123-54-124 2 14 75 158 14 163 119 3 78-121 87-175 55-17-10-28-26-33-46l33-7c5 56 141 63 141-1 0-78-155-14-162-118-5-82 145-84 179-34 5 7 8 16 11 25" id="ab"/><path d="M84 4C-5 8 30-112 23-190h32v120c0 31 7 50 39 49 72-2 45-101 50-169h31l1 190h-30c-1-10 1-25-2-33-11 22-28 36-60 37" id="ac"/><g id="g"><use transform="matrix(0.05,0,0,0.05,0,0)" xlink:href="#ab"/><use transform="matrix(0.05,0,0,0.05,12,0)" xlink:href="#ac"/><use transform="matrix(0.05,0,0,0.05,22,0)" xlink:href="#U"/><use transform="matrix(0.05,0,0,0.05,32,0)" xlink:href="#V"/><use transform="matrix(0.05,0,0,0.05,35.95,0)" xlink:href="#W"/><use transform="matrix(0.05,0,0,0.05,45.95,0)" xlink:href="#X"/><use transform="matrix(0.05,0,0,0.05,54.95,0)" xlink:href="#S"/><use transform="matrix(0.05,0,0,0.05,59.95,0)" xlink:href="#N"/><use transform="matrix(0.05,0,0,0.05,63.900000000000006,0)" xlink:href="#Y"/><use transform="matrix(0.05,0,0,0.05,72.9,0)" xlink:href="#W"/></g><path d="M101-234c-31-9-42 10-38 44h38v23H63V0H32v-167H5v-23h27c-7-52 17-82 69-68v24" id="ad"/><g id="h"><use transform="matrix(0.05,0,0,0.05,0,0)" xlink:href="#ad"/><use transform="matrix(0.05,0,0,0.05,5,0)" xlink:href="#N"/><use transform="matrix(0.05,0,0,0.05,8.95,0)" xlink:href="#M"/><use transform="matrix(0.05,0,0,0.05,14.899999999999999,0)" xlink:href="#aa"/><use transform="matrix(0.05,0,0,0.05,23.9,0)" xlink:href="#S"/></g><path d="M117-194c89-4 53 116 60 194h-32v-121c0-31-8-49-39-48C34-167 62-67 57 0H25l-1-190h30c1 10-1 24 2 32 11-22 29-35 61-36" id="ae"/><path d="M115-194c55 1 70 41 70 98S169 2 115 4C84 4 66-9 55-30l1 105H24l-1-265h31l2 30c10-21 28-34 59-34zm-8 174c40 0 45-34 45-75s-6-73-45-74c-42 0-51 32-51 76 0 43 10 73 51 73" id="af"/><path d="M100-194c62-1 85 37 85 99 1 63-27 99-86 99S16-35 15-95c0-66 28-99 85-99zM99-20c44 1 53-31 53-75 0-43-8-75-51-75s-53 32-53 75 10 74 51 75" id="ag"/><g id="i"><use transform="matrix(0.05,0,0,0.05,0,0)" xlink:href="#N"/><use transform="matrix(0.05,0,0,0.05,3.95,0)" xlink:href="#ae"/><use transform="matrix(0.05,0,0,0.05,13.949999999999998,0)" xlink:href="#S"/><use transform="matrix(0.05,0,0,0.05,18.95,0)" xlink:href="#W"/><use transform="matrix(0.05,0,0,0.05,28.950000000000003,0)" xlink:href="#M"/><use transform="matrix(0.05,0,0,0.05,34.9,0)" xlink:href="#af"/><use transform="matrix(0.05,0,0,0.05,44.9,0)" xlink:href="#M"/><use transform="matrix(0.05,0,0,0.05,50.85,0)" xlink:href="#W"/><use transform="matrix(0.05,0,0,0.05,60.85,0)" xlink:href="#S"/><use transform="matrix(0.05,0,0,0.05,65.85,0)" xlink:href="#P"/><use transform="matrix(0.05,0,0,0.05,75.85,0)" xlink:href="#S"/><use transform="matrix(0.05,0,0,0.05,80.85,0)" xlink:href="#N"/><use transform="matrix(0.05,0,0,0.05,84.8,0)" xlink:href="#ag"/><use transform="matrix(0.05,0,0,0.05,94.8,0)" xlink:href="#ae"/></g><g id="j"><use transform="matrix(0.05,0,0,0.05,0,0)" xlink:href="#D"/><use transform="matrix(0.05,0,0,0.05,12,0)" xlink:href="#E"/><use transform="matrix(0.05,0,0,0.05,26.950000000000003,0)" xlink:href="#F"/><use transform="matrix(0.05,0,0,0.05,36.95,0)" xlink:href="#G"/><use transform="matrix(0.05,0,0,0.05,42.900000000000006,0)" xlink:href="#H"/><use transform="matrix(0.05,0,0,0.05,53.85,0)" xlink:href="#I"/><use transform="matrix(0.05,0,0,0.05,65.85000000000001,0)" xlink:href="#J"/></g><path d="M18-27v-27l151-64-151-65v-27l175 74v36" id="ah"/><use transform="matrix(0.05,0,0,0.05,0,0)" xlink:href="#ah" id="k"/><g id="l"><use transform="matrix(0.05,0,0,0.05,0,0)" xlink:href="#R"/><use transform="matrix(0.05,0,0,0.05,10,0)" xlink:href="#P"/><use transform="matrix(0.05,0,0,0.05,20,0)" xlink:href="#S"/><use transform="matrix(0.05,0,0,0.05,25,0)" xlink:href="#P"/></g><path d="M177-190C167-65 218 103 67 71c-23-6-38-20-44-43l32-5c15 47 100 32 89-28v-30C133-14 115 1 83 1 29 1 15-40 15-95c0-56 16-97 71-98 29-1 48 16 59 35 1-10 0-23 2-32h30zM94-22c36 0 50-32 50-73 0-42-14-75-50-75-39 0-46 34-46 75s6 73 46 73" id="ai"/><g id="m"><use transform="matrix(0.05,0,0,0.05,0,0)" xlink:href="#O"/><use transform="matrix(0.05,0,0,0.05,14.950000000000001,0)" xlink:href="#N"/><use transform="matrix(0.05,0,0,0.05,18.900000000000002,0)" xlink:href="#ae"/><use transform="matrix(0.05,0,0,0.05,28.900000000000002,0)" xlink:href="#N"/><use transform="matrix(0.05,0,0,0.05,32.85,0)" xlink:href="#ae"/><use transform="matrix(0.05,0,0,0.05,42.85,0)" xlink:href="#ai"/></g><path d="M141 0L90-78 38 0H4l68-98-65-92h35l48 74 47-74h35l-64 92 68 98h-35" id="aj"/><g id="n"><use transform="matrix(0.05,0,0,0.05,0,0)" xlink:href="#S"/><use transform="matrix(0.05,0,0,0.05,5,0)" xlink:href="#W"/><use transform="matrix(0.05,0,0,0.05,15,0)" xlink:href="#aj"/><use transform="matrix(0.05,0,0,0.05,24,0)" xlink:href="#S"/></g><path d="M63-220v92h138v28H63V0H30v-248h175v28H63" id="ak"/><g id="o"><use transform="matrix(0.05,0,0,0.05,0,0)" xlink:href="#ak"/><use transform="matrix(0.05,0,0,0.05,10.950000000000001,0)" xlink:href="#N"/><use transform="matrix(0.05,0,0,0.05,14.9,0)" xlink:href="#ae"/><use transform="matrix(0.05,0,0,0.05,24.900000000000002,0)" xlink:href="#P"/><use transform="matrix(0.05,0,0,0.05,34.900000000000006,0)" xlink:href="#Z"/></g><g id="p"><use transform="matrix(0.05,0,0,0.05,0,0)" xlink:href="#ae"/><use transform="matrix(0.05,0,0,0.05,10,0)" xlink:href="#ag"/><use transform="matrix(0.05,0,0,0.05,20,0)" xlink:href="#R"/><use transform="matrix(0.05,0,0,0.05,30,0)" xlink:href="#W"/><use transform="matrix(0.05,0,0,0.05,40,0)" xlink:href="#aa"/></g><path d="M106-169C34-169 62-67 57 0H25v-261h32l-1 103c12-21 28-36 61-36 89 0 53 116 60 194h-32v-121c2-32-8-49-39-48" id="al"/><g id="q"><use transform="matrix(0.05,0,0,0.05,0,0)" xlink:href="#al"/><use transform="matrix(0.05,0,0,0.05,10,0)" xlink:href="#W"/><use transform="matrix(0.05,0,0,0.05,20,0)" xlink:href="#M"/><use transform="matrix(0.05,0,0,0.05,25.950000000000003,0)" xlink:href="#O"/><use transform="matrix(0.05,0,0,0.05,40.9,0)" xlink:href="#W"/><use transform="matrix(0.05,0,0,0.05,50.9,0)" xlink:href="#ae"/><use transform="matrix(0.05,0,0,0.05,60.900000000000006,0)" xlink:href="#W"/><use transform="matrix(0.05,0,0,0.05,70.9,0)" xlink:href="#ac"/><use transform="matrix(0.05,0,0,0.05,80.9,0)" xlink:href="#S"/><use transform="matrix(0.05,0,0,0.05,85.9,0)" xlink:href="#N"/><use transform="matrix(0.05,0,0,0.05,89.85000000000001,0)" xlink:href="#X"/><use transform="matrix(0.05,0,0,0.05,98.85000000000001,0)" xlink:href="#aa"/></g><g id="r"><use transform="matrix(0.05,0,0,0.05,0,0)" xlink:href="#ag"/><use transform="matrix(0.05,0,0,0.05,10,0)" xlink:href="#ad"/></g><g id="s"><use transform="matrix(0.05,0,0,0.05,0,0)" xlink:href="#P"/><use transform="matrix(0.05,0,0,0.05,10,0)" xlink:href="#X"/><use transform="matrix(0.05,0,0,0.05,19,0)" xlink:href="#S"/><use transform="matrix(0.05,0,0,0.05,24,0)" xlink:href="#N"/><use transform="matrix(0.05,0,0,0.05,27.950000000000003,0)" xlink:href="#ag"/><use transform="matrix(0.05,0,0,0.05,37.95,0)" xlink:href="#ae"/></g><g id="t"><use transform="matrix(0.05,0,0,0.05,0,0)" xlink:href="#af"/><use transform="matrix(0.05,0,0,0.05,10,0)" xlink:href="#M"/><use transform="matrix(0.05,0,0,0.05,15.949999999999998,0)" xlink:href="#P"/><use transform="matrix(0.05,0,0,0.05,25.950000000000003,0)" xlink:href="#ai"/><use transform="matrix(0.05,0,0,0.05,35.95,0)" xlink:href="#O"/><use transform="matrix(0.05,0,0,0.05,50.900000000000006,0)" xlink:href="#P"/><use transform="matrix(0.05,0,0,0.05,60.900000000000006,0)" xlink:href="#S"/><use transform="matrix(0.05,0,0,0.05,65.9,0)" xlink:href="#N"/><use transform="matrix(0.05,0,0,0.05,69.85000000000001,0)" xlink:href="#X"/><use transform="matrix(0.05,0,0,0.05,78.85000000000001,0)" xlink:href="#aa"/></g><g id="u"><use transform="matrix(0.05,0,0,0.05,0,0)" xlink:href="#W"/><use transform="matrix(0.05,0,0,0.05,10,0)" xlink:href="#O"/><use transform="matrix(0.05,0,0,0.05,24.950000000000003,0)" xlink:href="#af"/><use transform="matrix(0.05,0,0,0.05,34.95,0)" xlink:href="#N"/><use transform="matrix(0.05,0,0,0.05,38.900000000000006,0)" xlink:href="#M"/><use transform="matrix(0.05,0,0,0.05,44.85000000000001,0)" xlink:href="#N"/><use transform="matrix(0.05,0,0,0.05,48.80000000000001,0)" xlink:href="#X"/><use transform="matrix(0.05,0,0,0.05,57.80000000000001,0)" xlink:href="#N"/><use transform="matrix(0.05,0,0,0.05,61.750000000000014,0)" xlink:href="#aa"/><use transform="matrix(0.05,0,0,0.05,70.75000000000001,0)" xlink:href="#O"/></g><g id="v"><use transform="matrix(0.05,0,0,0.05,0,0)" xlink:href="#af"/><use transform="matrix(0.05,0,0,0.05,10,0)" xlink:href="#al"/><use transform="matrix(0.05,0,0,0.05,20,0)" xlink:href="#N"/><use transform="matrix(0.05,0,0,0.05,23.95,0)" xlink:href="#Z"/><use transform="matrix(0.05,0,0,0.05,27.899999999999995,0)" xlink:href="#ag"/><use transform="matrix(0.05,0,0,0.05,37.9,0)" xlink:href="#aa"/><use transform="matrix(0.05,0,0,0.05,46.9,0)" xlink:href="#ag"/><use transform="matrix(0.05,0,0,0.05,56.900000000000006,0)" xlink:href="#af"/><use transform="matrix(0.05,0,0,0.05,66.9,0)" xlink:href="#al"/><use transform="matrix(0.05,0,0,0.05,76.9,0)" xlink:href="#Q"/></g><g id="w"><use transform="matrix(0.05,0,0,0.05,0,0)" xlink:href="#P"/><use transform="matrix(0.05,0,0,0.05,10,0)" xlink:href="#X"/><use transform="matrix(0.05,0,0,0.05,19,0)" xlink:href="#S"/><use transform="matrix(0.05,0,0,0.05,24,0)" xlink:href="#N"/><use transform="matrix(0.05,0,0,0.05,27.950000000000003,0)" xlink:href="#ag"/><use transform="matrix(0.05,0,0,0.05,37.95,0)" xlink:href="#ae"/></g><g id="x"><use transform="matrix(0.05,0,0,0.05,0,0)" xlink:href="#L"/><use transform="matrix(0.05,0,0,0.05,12,0)" xlink:href="#ag"/><use transform="matrix(0.05,0,0,0.05,22,0)" xlink:href="#af"/><use transform="matrix(0.05,0,0,0.05,32,0)" xlink:href="#af"/><use transform="matrix(0.05,0,0,0.05,42,0)" xlink:href="#W"/><use transform="matrix(0.05,0,0,0.05,52,0)" xlink:href="#M"/><use transform="matrix(0.05,0,0,0.05,57.95,0)" xlink:href="#N"/><use transform="matrix(0.05,0,0,0.05,61.900000000000006,0)" xlink:href="#P"/><use transform="matrix(0.05,0,0,0.05,71.9,0)" xlink:href="#ae"/></g><g id="y"><use transform="matrix(0.05,0,0,0.05,0,0)" xlink:href="#R"/><use transform="matrix(0.05,0,0,0.05,10,0)" xlink:href="#W"/><use transform="matrix(0.05,0,0,0.05,20,0)" xlink:href="#R"/><use transform="matrix(0.05,0,0,0.05,30,0)" xlink:href="#ac"/><use transform="matrix(0.05,0,0,0.05,40,0)" xlink:href="#X"/><use transform="matrix(0.05,0,0,0.05,49,0)" xlink:href="#S"/><use transform="matrix(0.05,0,0,0.05,54,0)" xlink:href="#N"/><use transform="matrix(0.05,0,0,0.05,57.95,0)" xlink:href="#ag"/><use transform="matrix(0.05,0,0,0.05,67.95,0)" xlink:href="#ae"/></g><g id="z"><use transform="matrix(0.05,0,0,0.05,0,0)" xlink:href="#R"/><use transform="matrix(0.05,0,0,0.05,10,0)" xlink:href="#W"/><use transform="matrix(0.05,0,0,0.05,20,0)" xlink:href="#ag"/><use transform="matrix(0.05,0,0,0.05,30,0)" xlink:href="#ae"/><use transform="matrix(0.05,0,0,0.05,40,0)" xlink:href="#S"/><use transform="matrix(0.05,0,0,0.05,45,0)" xlink:href="#N"/><use transform="matrix(0.05,0,0,0.05,48.95,0)" xlink:href="#X"/></g><path d="M206 0h-36l-40-164L89 0H53L-1-190h32L70-26l43-164h34l41 164 42-164h31" id="am"/><g id="A"><use transform="matrix(0.05,0,0,0.05,0,0)" xlink:href="#af"/><use transform="matrix(0.05,0,0,0.05,10,0)" xlink:href="#ag"/><use transform="matrix(0.05,0,0,0.05,20,0)" xlink:href="#am"/><use transform="matrix(0.05,0,0,0.05,32.95,0)" xlink:href="#W"/><use transform="matrix(0.05,0,0,0.05,42.95,0)" xlink:href="#M"/></g><path d="M9 0v-24l116-142H16v-24h144v24L44-24h123V0H9" id="an"/><g id="B"><use transform="matrix(0.043209876543209874,0,0,0.043209876543209874,0,0)" xlink:href="#Y"/><use transform="matrix(0.043209876543209874,0,0,0.043209876543209874,7.777777777777778,0)" xlink:href="#N"/><use transform="matrix(0.043209876543209874,0,0,0.043209876543209874,11.191358024691358,0)" xlink:href="#an"/><use transform="matrix(0.043209876543209874,0,0,0.043209876543209874,18.969135802469136,0)" xlink:href="#ac"/><use transform="matrix(0.043209876543209874,0,0,0.043209876543209874,27.61111111111111,0)" xlink:href="#P"/><use transform="matrix(0.043209876543209874,0,0,0.043209876543209874,36.25308641975309,0)" xlink:href="#Z"/><use transform="matrix(0.043209876543209874,0,0,0.043209876543209874,39.66666666666667,0)" xlink:href="#N"/><use transform="matrix(0.043209876543209874,0,0,0.043209876543209874,43.080246913580254,0)" xlink:href="#an"/><use transform="matrix(0.043209876543209874,0,0,0.043209876543209874,50.85802469135803,0)" xlink:href="#P"/><use transform="matrix(0.043209876543209874,0,0,0.043209876543209874,59.50000000000001,0)" xlink:href="#S"/><use transform="matrix(0.043209876543209874,0,0,0.043209876543209874,63.820987654320994,0)" xlink:href="#N"/><use transform="matrix(0.043209876543209874,0,0,0.043209876543209874,67.23456790123457,0)" xlink:href="#ag"/><use transform="matrix(0.043209876543209874,0,0,0.043209876543209874,75.87654320987654,0)" xlink:href="#ae"/></g><path d="M87 75C49 33 22-17 22-94c0-76 28-126 65-167h31c-38 41-64 92-64 168S80 34 118 75H87" id="ao"/><path d="M101-251c82-7 93 87 43 132L82-64C71-53 59-42 53-27h129V0H18c2-99 128-94 128-182 0-28-16-43-45-43s-46 15-49 41l-32-3c6-41 34-60 81-64" id="ap"/><path d="M33-261c38 41 65 92 65 168S71 34 33 75H2C39 34 66-17 66-93S39-220 2-261h31" id="aq"/><g id="C"><use transform="matrix(0.043209876543209874,0,0,0.043209876543209874,0,0)" xlink:href="#ao"/><use transform="matrix(0.043209876543209874,0,0,0.043209876543209874,5.141975308641975,0)" xlink:href="#ai"/><use transform="matrix(0.043209876543209874,0,0,0.043209876543209874,13.78395061728395,0)" xlink:href="#ai"/><use transform="matrix(0.043209876543209874,0,0,0.043209876543209874,22.425925925925924,0)" xlink:href="#af"/><use transform="matrix(0.043209876543209874,0,0,0.043209876543209874,31.0679012345679,0)" xlink:href="#Z"/><use transform="matrix(0.043209876543209874,0,0,0.043209876543209874,34.48148148148148,0)" xlink:href="#ag"/><use transform="matrix(0.043209876543209874,0,0,0.043209876543209874,43.123456790123456,0)" xlink:href="#S"/><use transform="matrix(0.043209876543209874,0,0,0.043209876543209874,47.44444444444444,0)" xlink:href="#ap"/><use transform="matrix(0.043209876543209874,0,0,0.043209876543209874,56.08641975308642,0)" xlink:href="#aq"/></g></defs></g></svg>