<svg xmlns="http://www.w3.org/2000/svg" xmlns:xlink="http://www.w3.org/1999/xlink" width="1303.7" height="885.2"><g transform="translate(-7.5 -140)"><path d="M0 0h1323.2v1870.4H0z" fill="#fff"/><path d="M310 372c0 28.72-24.62 52-55 52s-55-23.28-55-52 24.62-52 55-52 55 23.28 55 52z" stroke="#000" stroke-width="2" fill="#99d2f2"/><use xlink:href="#a" transform="matrix(1,0,0,1,200,320) translate(19.57999999999999 56.65)"/><path d="M950 581c0 28.72-24.62 52-55 52s-55-23.28-55-52 24.62-52 55-52 55 23.28 55 52z" stroke="#000" stroke-width="2" fill="#99d2f2"/><use xlink:href="#b" transform="matrix(1,0,0,1,840,529) translate(48.529999999999994 56.65)"/><path d="M310 372h70c2.76 0 5 2.24 5 5v199c0 2.76 2.24 5 5 5h70" stroke="#000" stroke-width="2" fill="none"/><path d="M310 373h-.05l.05-1v-1zM460 581l-14.27 4.64v-9.28z"/><path d="M460.04 579.96L460 581l.04 1.04-15.3 4.97v-12zm-13.3 4.3l10.02-3.26-10.03-3.26z"/><path fill="#fff" d="M334.1 393.54h101.8v21.6H334.1z"/><use xlink:href="#c" transform="matrix(1,0,0,1,334.1,393.5391959798995) translate(0 14.4)"/><use xlink:href="#d" transform="matrix(1,0,0,1,334.1,393.5391959798995) translate(66.80000000000001 14.4)"/><path fill="#fff" d="M309.13 447.66H460.9v21.6H309.12z"/><use xlink:href="#e" transform="matrix(1,0,0,1,309.125,447.6597989949749) translate(0 14.4)"/><use xlink:href="#f" transform="matrix(1,0,0,1,309.125,447.6597989949749) translate(79.9 14.4)"/><path fill="#fff" d="M305.13 494.2H464.9v21.6H305.12z"/><use xlink:href="#g" transform="matrix(1,0,0,1,305.125,494.2000000000001) translate(0 14.4)"/><use xlink:href="#f" transform="matrix(1,0,0,1,305.125,494.2000000000001) translate(87.9 14.4)"/><path d="M604 521c8.84 0 16 26.86 16 60s-7.16 60-16 60H476c-8.84 0-16-26.86-16-60s7.16-60 16-60z" stroke="#000" stroke-width="2" fill="#99d2f2"/><path d="M604 641c-8.84 0-16-26.86-16-60s7.16-60 16-60" stroke="#000" stroke-width="2" fill="none"/><use xlink:href="#h" transform="matrix(1,0,0,1,460,521) translate(19.104999999999997 63.15)"/><use xlink:href="#i" transform="matrix(1,0,0,1,460,521) translate(62.055 63.15)"/><path d="M600 566.25c0-2.76 2.24-5 5-5h170.5c2.76 0 5-2.24 5-5v-9.75c0-2.76 1.58-3.42 3.54-1.46l32.42 32.42c1.96 1.96 1.96 5.12 0 7.08l-32.42 32.42c-1.96 1.96-3.54 1.3-3.54-1.46v-9.75c0-2.76-2.24-5-5-5H605c-2.76 0-5-2.24-5-5z" fill="#ff8000"/><use xlink:href="#j" transform="matrix(1,0,0,1,600,541.5) translate(8.429999999999987 44.025)"/><use xlink:href="#k" transform="matrix(1,0,0,1,600,541.5) translate(84.28 44.025)"/><use xlink:href="#l" transform="matrix(1,0,0,1,600,541.5) translate(99.78 44.025)"/><use xlink:href="#m" transform="matrix(1,0,0,1,600,541.5) translate(163.68 44.025)"/><path d="M180 268c0 6.63-26.86 12-60 12s-60-5.37-60-12v-96c0-6.63 26.86-12 60-12s60 5.37 60 12z" stroke="#999" stroke-width="2" fill="#ccc"/><path d="M180 172c0 6.63-26.86 12-60 12s-60-5.37-60-12" stroke="#999" stroke-width="2" fill="none"/><use xlink:href="#n" transform="matrix(1,0,0,1,60,189) translate(45.505 48.525)"/><path d="M960 832.1c0 9.33-26.86 16.9-60 16.9s-60-7.57-60-16.9V696.9c0-9.33 26.86-16.9 60-16.9s60 7.57 60 16.9z" stroke="#000" stroke-width="2" fill="#fcc438"/><path d="M960 696.9c0 9.33-26.86 16.9-60 16.9s-60-7.57-60-16.9" stroke="#000" stroke-width="2" fill="none"/><use xlink:href="#o" transform="matrix(1,0,0,1,840,718.8) translate(7.604999999999999 47.15)"/><use xlink:href="#p" transform="matrix(1,0,0,1,840,718.8) translate(12.055000000000001 68.75)"/><use xlink:href="#l" transform="matrix(1,0,0,1,840,718.8) translate(32.055 68.75)"/><use xlink:href="#q" transform="matrix(1,0,0,1,840,718.8) translate(95.955 68.75)"/><use xlink:href="#r" transform="matrix(1,0,0,1,840,718.8) translate(10.029999999999996 90.35000000000001)"/><path d="M950 581h95c2.76 0 5 2.24 5 5v173.5c0 2.76-2.24 5-5 5h-85" stroke="#000" stroke-width="2" fill="none"/><path d="M950 582h-.05l.05-1v-1zM974.27 769.14L960 764.5l14.27-4.64z"/><path d="M975.27 770.5L960 765.56v-2.1l15.27-4.96zm-12.03-6l10.03 3.26v-6.52z"/><path fill="#fff" d="M1025.5 656.95h49v21.6h-49z"/><use xlink:href="#s" transform="matrix(1,0,0,1,1025.5,656.95) translate(0 14.4)"/><path d="M116 868.22c2.2-1.67 5.8-1.67 8 0l84.5 63.96c2.2 1.67 2.2 4.37 0 6.04l-84.5 63.96c-2.2 1.67-5.8 1.67-8 0l-84.5-63.96c-2.2-1.67-2.2-4.37 0-6.04z" stroke="#000" stroke-width="2" fill="#7ab648"/><use xlink:href="#t" transform="matrix(1,0,0,1,27.5,865.1999999999999) translate(38.57999999999999 63.41)"/><use xlink:href="#u" transform="matrix(1,0,0,1,27.5,865.1999999999999) translate(58.529999999999994 85.01)"/><use xlink:href="#v" transform="matrix(1,0,0,1,27.5,865.1999999999999) translate(78.53 85.01)"/><path d="M840 764.5l-7.28-3.63-7.03-3.14-6.85-2.72-6.7-2.34-6.6-2-6.55-1.7-6.53-1.4-6.57-1.1-6.64-.86-6.75-.58-6.92-.3h-7.15l-7.45.3-7.84.64-8.34 1.05-8.97 1.5-9.8 2.1-10.95 2.78-12.52 3.77-14.9 5.18-18.94 7.5-27.85 12.4-186.8 90L404 887.75l-36.8 12.76-35.24 10.6-34.64 8.84-34.62 7.3-35.04 5.88-15.16 2.08" stroke="#000" stroke-width="2" fill="none"/><path d="M840 765.6l-.43-.2.43-.9zM227.26 937.86l-14.76-2.66 13.5-6.53z"/><path d="M228.44 939.08L210 935.76l-.02-.45 16.83-8.13zm-12.73-4.32l10.4 1.87-.9-6.46z"/><path fill="#fff" d="M719.83 733.92h87.86v21.6h-87.87z"/><use xlink:href="#w" transform="matrix(1,0,0,1,719.8268723750333,733.9193902674866) translate(0 14.4)"/><path fill="#fff" d="M623.5 755.7h85.7v21.6h-85.7z"/><use xlink:href="#x" transform="matrix(1,0,0,1,623.4866856048544,755.7064744955522) translate(0 14.4)"/><path fill="#fff" d="M508.75 791.7H667.6v21.6H508.76z"/><use xlink:href="#y" transform="matrix(1,0,0,1,508.7453540994505,791.702902756245) translate(0 14.4)"/><use xlink:href="#u" transform="matrix(1,0,0,1,508.7453540994505,791.702902756245) translate(90.9 14.4)"/><use xlink:href="#z" transform="matrix(1,0,0,1,508.7453540994505,791.702902756245) translate(110.9 14.4)"/><path fill="#fff" d="M246.46 901.1h164.86v21.6H246.46z"/><use xlink:href="#A" transform="matrix(1,0,0,1,246.46379983728104,901.0858096105486) translate(0 14.4)"/><use xlink:href="#B" transform="matrix(1,0,0,1,246.46379983728104,901.0858096105486) translate(86.9 14.4)"/><path fill="#fff" d="M445.7 833.4h111.85V855H445.7z"/><use xlink:href="#C" transform="matrix(1,0,0,1,445.6852777243311,833.4067730628707) translate(0 14.4)"/><use xlink:href="#D" transform="matrix(1,0,0,1,445.6852777243311,833.4067730628707) translate(62.95 14.4)"/><path fill="#fff" d="M397.65 868h58v21.6h-58z"/><g><use xlink:href="#E" transform="matrix(1,0,0,1,397.6509409038613,868.006506007991) translate(0 14.4)"/></g><path d="M120 280v585.2" fill="none"/><path d="M121.5 280c0 .83-.67 1.5-1.5 1.5s-1.5-.67-1.5-1.5.67-1.5 1.5-1.5 1.5.67 1.5 1.5zm0 11.94c0 .83-.67 1.5-1.5 1.5s-1.5-.67-1.5-1.5.67-1.5 1.5-1.5 1.5.67 1.5 1.5zm0 11.95c0 .8-.67 1.5-1.5 1.5s-1.5-.7-1.5-1.5c0-.84.67-1.5 1.5-1.5s1.5.66 1.5 1.5zm0 11.93c0 .83-.67 1.5-1.5 1.5s-1.5-.67-1.5-1.5.67-1.5 1.5-1.5 1.5.67 1.5 1.5zm0 11.94c0 .83-.67 1.5-1.5 1.5s-1.5-.67-1.5-1.5.67-1.5 1.5-1.5 1.5.67 1.5 1.5zm0 11.94c0 .84-.67 1.5-1.5 1.5s-1.5-.66-1.5-1.5c0-.8.67-1.5 1.5-1.5s1.5.7 1.5 1.5zm0 11.96c0 .83-.67 1.5-1.5 1.5s-1.5-.67-1.5-1.5.67-1.5 1.5-1.5 1.5.67 1.5 1.5zm0 11.94c0 .83-.67 1.5-1.5 1.5s-1.5-.67-1.5-1.5.67-1.5 1.5-1.5 1.5.67 1.5 1.5zm0 11.94c0 .83-.67 1.5-1.5 1.5s-1.5-.67-1.5-1.5.67-1.5 1.5-1.5 1.5.67 1.5 1.5zm0 11.95c0 .8-.67 1.5-1.5 1.5s-1.5-.7-1.5-1.5c0-.84.67-1.5 1.5-1.5s1.5.66 1.5 1.5zm0 11.93c0 .83-.67 1.5-1.5 1.5s-1.5-.67-1.5-1.5.67-1.5 1.5-1.5 1.5.67 1.5 1.5zm0 11.94c0 .83-.67 1.5-1.5 1.5s-1.5-.67-1.5-1.5.67-1.5 1.5-1.5 1.5.67 1.5 1.5zm0 11.94c0 .84-.67 1.5-1.5 1.5s-1.5-.66-1.5-1.5c0-.8.67-1.5 1.5-1.5s1.5.7 1.5 1.5zm0 11.96c0 .83-.67 1.5-1.5 1.5s-1.5-.67-1.5-1.5.67-1.5 1.5-1.5 1.5.67 1.5 1.5zm0 11.94c0 .83-.67 1.5-1.5 1.5s-1.5-.67-1.5-1.5.67-1.5 1.5-1.5 1.5.67 1.5 1.5zm0 11.94c0 .83-.67 1.5-1.5 1.5s-1.5-.67-1.5-1.5.67-1.5 1.5-1.5 1.5.67 1.5 1.5zm0 11.95c0 .8-.67 1.5-1.5 1.5s-1.5-.7-1.5-1.5c0-.84.67-1.5 1.5-1.5s1.5.66 1.5 1.5zm0 11.93c0 .83-.67 1.5-1.5 1.5s-1.5-.67-1.5-1.5.67-1.5 1.5-1.5 1.5.67 1.5 1.5zm0 11.94c0 .83-.67 1.5-1.5 1.5s-1.5-.67-1.5-1.5.67-1.5 1.5-1.5 1.5.67 1.5 1.5zm0 11.94c0 .84-.67 1.5-1.5 1.5s-1.5-.66-1.5-1.5c0-.8.67-1.5 1.5-1.5s1.5.7 1.5 1.5zm0 11.96c0 .83-.67 1.5-1.5 1.5s-1.5-.67-1.5-1.5.67-1.5 1.5-1.5 1.5.67 1.5 1.5zm0 11.94c0 .83-.67 1.5-1.5 1.5s-1.5-.67-1.5-1.5.67-1.5 1.5-1.5 1.5.67 1.5 1.5zm0 11.94c0 .83-.67 1.5-1.5 1.5s-1.5-.67-1.5-1.5.67-1.5 1.5-1.5 1.5.67 1.5 1.5zm0 11.95c0 .8-.67 1.5-1.5 1.5s-1.5-.7-1.5-1.5c0-.84.67-1.5 1.5-1.5s1.5.66 1.5 1.5zm0 11.93c0 .83-.67 1.5-1.5 1.5s-1.5-.67-1.5-1.5.67-1.5 1.5-1.5 1.5.67 1.5 1.5zm0 11.94c0 .83-.67 1.5-1.5 1.5s-1.5-.67-1.5-1.5.67-1.5 1.5-1.5 1.5.67 1.5 1.5zm0 11.94c0 .84-.67 1.5-1.5 1.5s-1.5-.66-1.5-1.5c0-.8.67-1.5 1.5-1.5s1.5.7 1.5 1.5zm0 11.96c0 .83-.67 1.5-1.5 1.5s-1.5-.67-1.5-1.5.67-1.5 1.5-1.5 1.5.67 1.5 1.5zm0 11.94c0 .83-.67 1.5-1.5 1.5s-1.5-.67-1.5-1.5.67-1.5 1.5-1.5 1.5.67 1.5 1.5zm0 11.94c0 .83-.67 1.5-1.5 1.5s-1.5-.67-1.5-1.5.67-1.5 1.5-1.5 1.5.67 1.5 1.5zm0 11.95c0 .8-.67 1.5-1.5 1.5s-1.5-.7-1.5-1.5c0-.84.67-1.5 1.5-1.5s1.5.66 1.5 1.5zm0 11.93c0 .83-.67 1.5-1.5 1.5s-1.5-.67-1.5-1.5.67-1.5 1.5-1.5 1.5.67 1.5 1.5zm0 11.94c0 .83-.67 1.5-1.5 1.5s-1.5-.67-1.5-1.5.67-1.5 1.5-1.5 1.5.67 1.5 1.5zm0 11.94c0 .84-.67 1.5-1.5 1.5s-1.5-.66-1.5-1.5c0-.8.67-1.5 1.5-1.5s1.5.7 1.5 1.5zm0 11.96c0 .83-.67 1.5-1.5 1.5s-1.5-.67-1.5-1.5.67-1.5 1.5-1.5 1.5.67 1.5 1.5zm0 11.94c0 .83-.67 1.5-1.5 1.5s-1.5-.67-1.5-1.5.67-1.5 1.5-1.5 1.5.67 1.5 1.5zm0 11.94c0 .83-.67 1.5-1.5 1.5s-1.5-.67-1.5-1.5.67-1.5 1.5-1.5 1.5.67 1.5 1.5zm0 11.95c0 .8-.67 1.5-1.5 1.5s-1.5-.7-1.5-1.5c0-.84.67-1.5 1.5-1.5s1.5.66 1.5 1.5zm0 11.93c0 .83-.67 1.5-1.5 1.5s-1.5-.67-1.5-1.5.67-1.5 1.5-1.5 1.5.67 1.5 1.5zm0 11.94c0 .83-.67 1.5-1.5 1.5s-1.5-.67-1.5-1.5.67-1.5 1.5-1.5 1.5.67 1.5 1.5zm0 11.94c0 .84-.67 1.5-1.5 1.5s-1.5-.66-1.5-1.5c0-.8.67-1.5 1.5-1.5s1.5.7 1.5 1.5zm0 11.96c0 .83-.67 1.5-1.5 1.5s-1.5-.67-1.5-1.5.67-1.5 1.5-1.5 1.5.67 1.5 1.5zm0 11.94c0 .83-.67 1.5-1.5 1.5s-1.5-.67-1.5-1.5.67-1.5 1.5-1.5 1.5.67 1.5 1.5zm0 11.94c0 .83-.67 1.5-1.5 1.5s-1.5-.67-1.5-1.5.67-1.5 1.5-1.5 1.5.67 1.5 1.5zm0 11.95c0 .8-.67 1.5-1.5 1.5s-1.5-.7-1.5-1.5c0-.84.67-1.5 1.5-1.5s1.5.66 1.5 1.5zm0 11.93c0 .83-.67 1.5-1.5 1.5s-1.5-.67-1.5-1.5.67-1.5 1.5-1.5 1.5.67 1.5 1.5zm0 11.94c0 .83-.67 1.5-1.5 1.5s-1.5-.67-1.5-1.5.67-1.5 1.5-1.5 1.5.67 1.5 1.5zm0 11.94c0 .84-.67 1.5-1.5 1.5s-1.5-.66-1.5-1.5c0-.8.67-1.5 1.5-1.5s1.5.7 1.5 1.5zm0 11.96c0 .83-.67 1.5-1.5 1.5s-1.5-.67-1.5-1.5.67-1.5 1.5-1.5 1.5.67 1.5 1.5zm0 11.94c0 .83-.67 1.5-1.5 1.5s-1.5-.67-1.5-1.5.67-1.5 1.5-1.5 1.5.67 1.5 1.5z" fill="#7ab648"/><path d="M120 280h-1.5v-.06zm1.5 0H120l1.5-.05zM121.5 867.2l-1.5-.23-1.5.22v-2h3z" fill="#7ab648"/><path d="M180 220h70c2.76 0 5 2.24 5 5v95" stroke="#000" stroke-width="2" fill="none"/><path d="M255 320l-4.64-14.27h9.28z"/><path d="M256.04 320.05L255 320h-1.05L249 304.74h12zm-4.3-13.32l3.26 10.03 3.26-10.03z"/><path d="M1259.2 633c17.67 0 32 15 32 33.5s-14.33 33.5-32 33.5h-96c-17.67 0-32-15-32-33.5s14.33-33.5 32-33.5z" stroke="#000" stroke-width="2" fill="#fff"/><g><use xlink:href="#F" transform="matrix(1,0,0,1,1131.1999999999998,633) translate(37.745740740740736 27.100694444444443)"/><use xlink:href="#G" transform="matrix(1,0,0,1,1131.1999999999998,633) translate(49.3908024691358 45.767361111111114)"/></g><path d="M1131.2 666.5H1090" stroke="#000" stroke-width="2" fill="none"/><path d="M1131.2 666.5l.04 1h-.04v-2h.07z"/><path d="M485 380c-2.76 0-5 2.24-5 5v122c0 2.76 2.24 5 5 5h190c2.76 0 5-2.24 5-5V385c0-2.76-2.24-5-5-5z" fill="none"/><path d="M480 512c4.56 0 8.25-3.7 8.25-8.25v-49.5c0-4.56 3.7-8.25 8.25-8.25-4.56 0-8.25-3.7-8.25-8.25v-49.5c0-4.56-3.7-8.25-8.25-8.25" stroke="#000" stroke-width="2" fill="none"/><g><use xlink:href="#H" transform="matrix(1,0,0,1,504.75,380) translate(0 59.775)"/><use xlink:href="#I" transform="matrix(1,0,0,1,504.75,380) translate(0 81.375)"/></g><defs><path d="M195 0l-74-108L45 0H8l94-129-87-119h37l69 98 67-98h37l-84 118L233 0h-38" id="J"/><path d="M240 0l2-218c-23 76-54 145-80 218h-23L58-218 59 0H30v-248h44l77 211c21-75 51-140 76-211h43V0h-30" id="K"/><path d="M30 0v-248h33v221h125V0H30" id="L"/><path d="M16-82v-28h88v28H16" id="M"/><path d="M127-220V0H93v-220H8v-28h204v28h-85" id="N"/><path d="M30 0v-248h187v28H63v79h144v27H63v87h162V0H30" id="O"/><path d="M33 0v-248h34V0H33" id="P"/><g id="a"><use transform="matrix(0.05,0,0,0.05,0,0)" xlink:href="#J"/><use transform="matrix(0.05,0,0,0.05,12,0)" xlink:href="#K"/><use transform="matrix(0.05,0,0,0.05,26.950000000000003,0)" xlink:href="#L"/><use transform="matrix(0.05,0,0,0.05,36.95,0)" xlink:href="#M"/><use transform="matrix(0.05,0,0,0.05,42.900000000000006,0)" xlink:href="#N"/><use transform="matrix(0.05,0,0,0.05,53.85,0)" xlink:href="#O"/><use transform="matrix(0.05,0,0,0.05,65.85000000000001,0)" xlink:href="#P"/></g><path d="M233-177c-1 41-23 64-60 70L243 0h-38l-65-103H63V0H30v-248c88 3 205-21 203 71zM63-129c60-2 137 13 137-47 0-61-80-42-137-45v92" id="Q"/><use transform="matrix(0.05,0,0,0.05,0,0)" xlink:href="#Q" id="b"/><path d="M30-248c87 1 191-15 191 75 0 78-77 80-158 76V0H30v-248zm33 125c57 0 124 11 124-50 0-59-68-47-124-48v98" id="R"/><path d="M114-163C36-179 61-72 57 0H25l-1-190h30c1 12-1 29 2 39 6-27 23-49 58-41v29" id="S"/><path d="M24-231v-30h32v30H24zM24 0v-190h32V0H24" id="T"/><path d="M210-169c-67 3-38 105-44 169h-31v-121c0-29-5-50-35-48C34-165 62-65 56 0H25l-1-190h30c1 10-1 24 2 32 10-44 99-50 107 0 11-21 27-35 58-36 85-2 47 119 55 194h-31v-121c0-29-5-49-35-48" id="U"/><path d="M141-36C126-15 110 5 73 4 37 3 15-17 15-53c-1-64 63-63 125-63 3-35-9-54-41-54-24 1-41 7-42 31l-33-3c5-37 33-52 76-52 45 0 72 20 72 64v82c-1 20 7 32 28 27v20c-31 9-61-2-59-35zM48-53c0 20 12 33 32 33 41-3 63-29 60-74-43 2-92-5-92 41" id="V"/><path d="M179-190L93 31C79 59 56 82 12 73V49c39 6 53-20 64-50L1-190h34L92-34l54-156h33" id="W"/><g id="c"><use transform="matrix(0.05,0,0,0.05,0,0)" xlink:href="#R"/><use transform="matrix(0.05,0,0,0.05,12,0)" xlink:href="#S"/><use transform="matrix(0.05,0,0,0.05,17.95,0)" xlink:href="#T"/><use transform="matrix(0.05,0,0,0.05,21.9,0)" xlink:href="#U"/><use transform="matrix(0.05,0,0,0.05,36.85,0)" xlink:href="#V"/><use transform="matrix(0.05,0,0,0.05,46.85,0)" xlink:href="#S"/><use transform="matrix(0.05,0,0,0.05,52.800000000000004,0)" xlink:href="#W"/></g><path d="M85-194c31 0 48 13 60 33l-1-100h32l1 261h-30c-2-10 0-23-3-31C134-8 116 4 85 4 32 4 16-35 15-94c0-66 23-100 70-100zm9 24c-40 0-46 34-46 75 0 40 6 74 45 74 42 0 51-32 51-76 0-42-9-74-50-73" id="X"/><path d="M59-47c-2 24 18 29 38 22v24C64 9 27 4 27-40v-127H5v-23h24l9-43h21v43h35v23H59v120" id="Y"/><g id="d"><use transform="matrix(0.05,0,0,0.05,0,0)" xlink:href="#X"/><use transform="matrix(0.05,0,0,0.05,10,0)" xlink:href="#V"/><use transform="matrix(0.05,0,0,0.05,20,0)" xlink:href="#Y"/><use transform="matrix(0.05,0,0,0.05,25,0)" xlink:href="#V"/></g><path d="M140-251c81 0 123 46 123 126C263-46 219 4 140 4 59 4 17-45 17-125s42-126 123-126zm0 227c63 0 89-41 89-101s-29-99-89-99c-61 0-89 39-89 99S79-25 140-24" id="Z"/><path d="M115-194c53 0 69 39 70 98 0 66-23 100-70 100C84 3 66-7 56-30L54 0H23l1-261h32v101c10-23 28-34 59-34zm-8 174c40 0 45-34 45-75 0-40-5-75-45-74-42 0-51 32-51 76 0 43 10 73 51 73" id="aa"/><path d="M24-231v-30h32v30H24zM-9 49c24 4 33-6 33-30v-209h32V24c2 40-23 58-65 49V49" id="ab"/><path d="M100-194c63 0 86 42 84 106H49c0 40 14 67 53 68 26 1 43-12 49-29l28 8c-11 28-37 45-77 45C44 4 14-33 15-96c1-61 26-98 85-98zm52 81c6-60-76-77-97-28-3 7-6 17-6 28h103" id="ac"/><path d="M96-169c-40 0-48 33-48 73s9 75 48 75c24 0 41-14 43-38l32 2c-6 37-31 61-74 61-59 0-76-41-82-99-10-93 101-131 147-64 4 7 5 14 7 22l-32 3c-4-21-16-35-41-35" id="ad"/><path d="M108 0H70L1-190h34L89-25l56-165h34" id="ae"/><g id="e"><use transform="matrix(0.05,0,0,0.05,0,0)" xlink:href="#Z"/><use transform="matrix(0.05,0,0,0.05,14,0)" xlink:href="#aa"/><use transform="matrix(0.05,0,0,0.05,24,0)" xlink:href="#ab"/><use transform="matrix(0.05,0,0,0.05,27.950000000000003,0)" xlink:href="#ac"/><use transform="matrix(0.05,0,0,0.05,37.95,0)" xlink:href="#ad"/><use transform="matrix(0.05,0,0,0.05,46.95,0)" xlink:href="#Y"/><use transform="matrix(0.05,0,0,0.05,51.95,0)" xlink:href="#T"/><use transform="matrix(0.05,0,0,0.05,55.900000000000006,0)" xlink:href="#ae"/><use transform="matrix(0.05,0,0,0.05,64.9,0)" xlink:href="#ac"/></g><path d="M24 0v-261h32V0H24" id="af"/><path d="M135-143c-3-34-86-38-87 0 15 53 115 12 119 90S17 21 10-45l28-5c4 36 97 45 98 0-10-56-113-15-118-90-4-57 82-63 122-42 12 7 21 19 24 35" id="ag"/><g id="f"><use transform="matrix(0.05,0,0,0.05,0,0)" xlink:href="#ae"/><use transform="matrix(0.05,0,0,0.05,9,0)" xlink:href="#V"/><use transform="matrix(0.05,0,0,0.05,19,0)" xlink:href="#S"/><use transform="matrix(0.05,0,0,0.05,24.95,0)" xlink:href="#T"/><use transform="matrix(0.05,0,0,0.05,28.899999999999995,0)" xlink:href="#V"/><use transform="matrix(0.05,0,0,0.05,38.9,0)" xlink:href="#aa"/><use transform="matrix(0.05,0,0,0.05,48.9,0)" xlink:href="#af"/><use transform="matrix(0.05,0,0,0.05,52.85,0)" xlink:href="#ac"/><use transform="matrix(0.05,0,0,0.05,62.85,0)" xlink:href="#ag"/></g><path d="M185-189c-5-48-123-54-124 2 14 75 158 14 163 119 3 78-121 87-175 55-17-10-28-26-33-46l33-7c5 56 141 63 141-1 0-78-155-14-162-118-5-82 145-84 179-34 5 7 8 16 11 25" id="ah"/><path d="M84 4C-5 8 30-112 23-190h32v120c0 31 7 50 39 49 72-2 45-101 50-169h31l1 190h-30c-1-10 1-25-2-33-11 22-28 36-60 37" id="ai"/><g id="g"><use transform="matrix(0.05,0,0,0.05,0,0)" xlink:href="#ah"/><use transform="matrix(0.05,0,0,0.05,12,0)" xlink:href="#ai"/><use transform="matrix(0.05,0,0,0.05,22,0)" xlink:href="#aa"/><use transform="matrix(0.05,0,0,0.05,32,0)" xlink:href="#ab"/><use transform="matrix(0.05,0,0,0.05,35.95,0)" xlink:href="#ac"/><use transform="matrix(0.05,0,0,0.05,45.95,0)" xlink:href="#ad"/><use transform="matrix(0.05,0,0,0.05,54.95,0)" xlink:href="#Y"/><use transform="matrix(0.05,0,0,0.05,59.95,0)" xlink:href="#T"/><use transform="matrix(0.05,0,0,0.05,63.900000000000006,0)" xlink:href="#ae"/><use transform="matrix(0.05,0,0,0.05,72.9,0)" xlink:href="#ac"/></g><path d="M30-248c118-7 216 8 213 122C240-48 200 0 122 0H30v-248zM63-27c89 8 146-16 146-99s-60-101-146-95v194" id="aj"/><g id="h"><use transform="matrix(0.05,0,0,0.05,0,0)" xlink:href="#aj"/><use transform="matrix(0.05,0,0,0.05,12.950000000000001,0)" xlink:href="#V"/><use transform="matrix(0.05,0,0,0.05,22.950000000000003,0)" xlink:href="#Y"/><use transform="matrix(0.05,0,0,0.05,27.950000000000003,0)" xlink:href="#V"/></g><path d="M117-194c89-4 53 116 60 194h-32v-121c0-31-8-49-39-48C34-167 62-67 57 0H25l-1-190h30c1 10-1 24 2 32 11-22 29-35 61-36" id="ak"/><path d="M177-190C167-65 218 103 67 71c-23-6-38-20-44-43l32-5c15 47 100 32 89-28v-30C133-14 115 1 83 1 29 1 15-40 15-95c0-56 16-97 71-98 29-1 48 16 59 35 1-10 0-23 2-32h30zM94-22c36 0 50-32 50-73 0-42-14-75-50-75-39 0-46 34-46 75s6 73 46 73" id="al"/><g id="i"><use transform="matrix(0.05,0,0,0.05,0,0)" xlink:href="#U"/><use transform="matrix(0.05,0,0,0.05,14.950000000000001,0)" xlink:href="#T"/><use transform="matrix(0.05,0,0,0.05,18.900000000000002,0)" xlink:href="#ak"/><use transform="matrix(0.05,0,0,0.05,28.900000000000002,0)" xlink:href="#T"/><use transform="matrix(0.05,0,0,0.05,32.85,0)" xlink:href="#ak"/><use transform="matrix(0.05,0,0,0.05,42.85,0)" xlink:href="#al"/></g><g id="j"><use transform="matrix(0.05,0,0,0.05,0,0)" xlink:href="#J"/><use transform="matrix(0.05,0,0,0.05,12,0)" xlink:href="#K"/><use transform="matrix(0.05,0,0,0.05,26.950000000000003,0)" xlink:href="#L"/><use transform="matrix(0.05,0,0,0.05,36.95,0)" xlink:href="#M"/><use transform="matrix(0.05,0,0,0.05,42.900000000000006,0)" xlink:href="#N"/><use transform="matrix(0.05,0,0,0.05,53.85,0)" xlink:href="#O"/><use transform="matrix(0.05,0,0,0.05,65.85000000000001,0)" xlink:href="#P"/></g><path d="M18-27v-27l151-64-151-65v-27l175 74v36" id="am"/><use transform="matrix(0.05,0,0,0.05,0,0)" xlink:href="#am" id="k"/><path d="M115-194c55 1 70 41 70 98S169 2 115 4C84 4 66-9 55-30l1 105H24l-1-265h31l2 30c10-21 28-34 59-34zm-8 174c40 0 45-34 45-75s-6-73-45-74c-42 0-51 32-51 76 0 43 10 73 51 73" id="an"/><g id="l"><use transform="matrix(0.05,0,0,0.05,0,0)" xlink:href="#an"/><use transform="matrix(0.05,0,0,0.05,10,0)" xlink:href="#V"/><use transform="matrix(0.05,0,0,0.05,20,0)" xlink:href="#S"/><use transform="matrix(0.05,0,0,0.05,25.950000000000003,0)" xlink:href="#ag"/><use transform="matrix(0.05,0,0,0.05,34.95,0)" xlink:href="#T"/><use transform="matrix(0.05,0,0,0.05,38.900000000000006,0)" xlink:href="#ak"/><use transform="matrix(0.05,0,0,0.05,48.900000000000006,0)" xlink:href="#al"/></g><path d="M206 0h-36l-40-164L89 0H53L-1-190h32L70-26l43-164h34l41 164 42-164h31" id="ao"/><path d="M106-169C34-169 62-67 57 0H25v-261h32l-1 103c12-21 28-36 61-36 89 0 53 116 60 194h-32v-121c2-32-8-49-39-48" id="ap"/><g id="m"><use transform="matrix(0.05,0,0,0.05,0,0)" xlink:href="#ao"/><use transform="matrix(0.05,0,0,0.05,12.950000000000001,0)" xlink:href="#T"/><use transform="matrix(0.05,0,0,0.05,16.900000000000002,0)" xlink:href="#Y"/><use transform="matrix(0.05,0,0,0.05,21.900000000000002,0)" xlink:href="#ap"/></g><path d="M141 0L90-78 38 0H4l68-98-65-92h35l48 74 47-74h35l-64 92 68 98h-35" id="aq"/><g id="n"><use transform="matrix(0.05,0,0,0.05,0,0)" xlink:href="#Y"/><use transform="matrix(0.05,0,0,0.05,5,0)" xlink:href="#ac"/><use transform="matrix(0.05,0,0,0.05,15,0)" xlink:href="#aq"/><use transform="matrix(0.05,0,0,0.05,24,0)" xlink:href="#Y"/></g><path d="M100-194c62-1 85 37 85 99 1 63-27 99-86 99S16-35 15-95c0-66 28-99 85-99zM99-20c44 1 53-31 53-75 0-43-8-75-51-75s-53 32-53 75 10 74 51 75" id="ar"/><g id="o"><use transform="matrix(0.05,0,0,0.05,0,0)" xlink:href="#T"/><use transform="matrix(0.05,0,0,0.05,3.95,0)" xlink:href="#ak"/><use transform="matrix(0.05,0,0,0.05,13.949999999999998,0)" xlink:href="#Y"/><use transform="matrix(0.05,0,0,0.05,18.95,0)" xlink:href="#ac"/><use transform="matrix(0.05,0,0,0.05,28.950000000000003,0)" xlink:href="#S"/><use transform="matrix(0.05,0,0,0.05,34.9,0)" xlink:href="#an"/><use transform="matrix(0.05,0,0,0.05,44.9,0)" xlink:href="#S"/><use transform="matrix(0.05,0,0,0.05,50.85,0)" xlink:href="#ac"/><use transform="matrix(0.05,0,0,0.05,60.85,0)" xlink:href="#Y"/><use transform="matrix(0.05,0,0,0.05,65.85,0)" xlink:href="#V"/><use transform="matrix(0.05,0,0,0.05,75.85,0)" xlink:href="#Y"/><use transform="matrix(0.05,0,0,0.05,80.85,0)" xlink:href="#T"/><use transform="matrix(0.05,0,0,0.05,84.8,0)" xlink:href="#ar"/><use transform="matrix(0.05,0,0,0.05,94.8,0)" xlink:href="#ak"/></g><path d="M101-234c-31-9-42 10-38 44h38v23H63V0H32v-167H5v-23h27c-7-52 17-82 69-68v24" id="as"/><g id="p"><use transform="matrix(0.05,0,0,0.05,0,0)" xlink:href="#ar"/><use transform="matrix(0.05,0,0,0.05,10,0)" xlink:href="#as"/></g><path d="M234-2c-28 10-62 0-77-18C117 19 8 12 13-65c3-43 29-61 60-76-25-40-17-114 47-108 35 3 59 15 59 50 0 44-40 53-71 69 14 26 32 50 51 72 14-21 24-43 30-72l26 8c-9 33-21 57-38 82 13 13 33 22 57 15v23zM97-151c25-10 52-18 56-48-1-18-13-29-33-29-42 0-39 50-23 77zM42-66c-3 51 71 58 98 28-20-24-41-51-56-80-23 10-40 24-42 52" id="at"/><use transform="matrix(0.05,0,0,0.05,0,0)" xlink:href="#at" id="q"/><g id="r"><use transform="matrix(0.05,0,0,0.05,0,0)" xlink:href="#an"/><use transform="matrix(0.05,0,0,0.05,10,0)" xlink:href="#ar"/><use transform="matrix(0.05,0,0,0.05,20,0)" xlink:href="#ai"/><use transform="matrix(0.05,0,0,0.05,30,0)" xlink:href="#S"/><use transform="matrix(0.05,0,0,0.05,35.95,0)" xlink:href="#ad"/><use transform="matrix(0.05,0,0,0.05,44.95,0)" xlink:href="#ac"/><use transform="matrix(0.05,0,0,0.05,54.95,0)" xlink:href="#ak"/><use transform="matrix(0.05,0,0,0.05,64.95,0)" xlink:href="#Y"/><use transform="matrix(0.05,0,0,0.05,69.95,0)" xlink:href="#V"/><use transform="matrix(0.05,0,0,0.05,79.95,0)" xlink:href="#al"/><use transform="matrix(0.05,0,0,0.05,89.95,0)" xlink:href="#ac"/></g><g id="s"><use transform="matrix(0.05,0,0,0.05,0,0)" xlink:href="#ak"/><use transform="matrix(0.05,0,0,0.05,10,0)" xlink:href="#ar"/><use transform="matrix(0.05,0,0,0.05,20,0)" xlink:href="#X"/><use transform="matrix(0.05,0,0,0.05,30,0)" xlink:href="#ac"/><use transform="matrix(0.05,0,0,0.05,40,0)" xlink:href="#ag"/></g><g id="t"><use transform="matrix(0.05,0,0,0.05,0,0)" xlink:href="#ap"/><use transform="matrix(0.05,0,0,0.05,10,0)" xlink:href="#ac"/><use transform="matrix(0.05,0,0,0.05,20,0)" xlink:href="#S"/><use transform="matrix(0.05,0,0,0.05,25.950000000000003,0)" xlink:href="#U"/><use transform="matrix(0.05,0,0,0.05,40.9,0)" xlink:href="#ac"/><use transform="matrix(0.05,0,0,0.05,50.9,0)" xlink:href="#ak"/><use transform="matrix(0.05,0,0,0.05,60.900000000000006,0)" xlink:href="#ac"/><use transform="matrix(0.05,0,0,0.05,70.9,0)" xlink:href="#ai"/><use transform="matrix(0.05,0,0,0.05,80.9,0)" xlink:href="#Y"/><use transform="matrix(0.05,0,0,0.05,85.9,0)" xlink:href="#T"/><use transform="matrix(0.05,0,0,0.05,89.85000000000001,0)" xlink:href="#ad"/><use transform="matrix(0.05,0,0,0.05,98.85000000000001,0)" xlink:href="#ag"/></g><g id="u"><use transform="matrix(0.05,0,0,0.05,0,0)" xlink:href="#ar"/><use transform="matrix(0.05,0,0,0.05,10,0)" xlink:href="#as"/></g><g id="v"><use transform="matrix(0.05,0,0,0.05,0,0)" xlink:href="#V"/><use transform="matrix(0.05,0,0,0.05,10,0)" xlink:href="#ad"/><use transform="matrix(0.05,0,0,0.05,19,0)" xlink:href="#Y"/><use transform="matrix(0.05,0,0,0.05,24,0)" xlink:href="#T"/><use transform="matrix(0.05,0,0,0.05,27.950000000000003,0)" xlink:href="#ar"/><use transform="matrix(0.05,0,0,0.05,37.95,0)" xlink:href="#ak"/></g><g id="w"><use transform="matrix(0.05,0,0,0.05,0,0)" xlink:href="#an"/><use transform="matrix(0.05,0,0,0.05,10,0)" xlink:href="#S"/><use transform="matrix(0.05,0,0,0.05,15.949999999999998,0)" xlink:href="#V"/><use transform="matrix(0.05,0,0,0.05,25.950000000000003,0)" xlink:href="#al"/><use transform="matrix(0.05,0,0,0.05,35.95,0)" xlink:href="#U"/><use transform="matrix(0.05,0,0,0.05,50.900000000000006,0)" xlink:href="#V"/><use transform="matrix(0.05,0,0,0.05,60.900000000000006,0)" xlink:href="#Y"/><use transform="matrix(0.05,0,0,0.05,65.9,0)" xlink:href="#T"/><use transform="matrix(0.05,0,0,0.05,69.85000000000001,0)" xlink:href="#ad"/><use transform="matrix(0.05,0,0,0.05,78.85000000000001,0)" xlink:href="#ag"/></g><g id="x"><use transform="matrix(0.05,0,0,0.05,0,0)" xlink:href="#ac"/><use transform="matrix(0.05,0,0,0.05,10,0)" xlink:href="#U"/><use transform="matrix(0.05,0,0,0.05,24.950000000000003,0)" xlink:href="#an"/><use transform="matrix(0.05,0,0,0.05,34.95,0)" xlink:href="#T"/><use transform="matrix(0.05,0,0,0.05,38.900000000000006,0)" xlink:href="#S"/><use transform="matrix(0.05,0,0,0.05,44.85000000000001,0)" xlink:href="#T"/><use transform="matrix(0.05,0,0,0.05,48.80000000000001,0)" xlink:href="#ad"/><use transform="matrix(0.05,0,0,0.05,57.80000000000001,0)" xlink:href="#T"/><use transform="matrix(0.05,0,0,0.05,61.750000000000014,0)" xlink:href="#ag"/><use transform="matrix(0.05,0,0,0.05,70.75000000000001,0)" xlink:href="#U"/></g><g id="y"><use transform="matrix(0.05,0,0,0.05,0,0)" xlink:href="#an"/><use transform="matrix(0.05,0,0,0.05,10,0)" xlink:href="#ap"/><use transform="matrix(0.05,0,0,0.05,20,0)" xlink:href="#T"/><use transform="matrix(0.05,0,0,0.05,23.95,0)" xlink:href="#af"/><use transform="matrix(0.05,0,0,0.05,27.899999999999995,0)" xlink:href="#ar"/><use transform="matrix(0.05,0,0,0.05,37.9,0)" xlink:href="#ag"/><use transform="matrix(0.05,0,0,0.05,46.9,0)" xlink:href="#ar"/><use transform="matrix(0.05,0,0,0.05,56.900000000000006,0)" xlink:href="#an"/><use transform="matrix(0.05,0,0,0.05,66.9,0)" xlink:href="#ap"/><use transform="matrix(0.05,0,0,0.05,76.9,0)" xlink:href="#W"/></g><g id="z"><use transform="matrix(0.05,0,0,0.05,0,0)" xlink:href="#V"/><use transform="matrix(0.05,0,0,0.05,10,0)" xlink:href="#ad"/><use transform="matrix(0.05,0,0,0.05,19,0)" xlink:href="#Y"/><use transform="matrix(0.05,0,0,0.05,24,0)" xlink:href="#T"/><use transform="matrix(0.05,0,0,0.05,27.950000000000003,0)" xlink:href="#ar"/><use transform="matrix(0.05,0,0,0.05,37.95,0)" xlink:href="#ak"/></g><g id="A"><use transform="matrix(0.05,0,0,0.05,0,0)" xlink:href="#R"/><use transform="matrix(0.05,0,0,0.05,12,0)" xlink:href="#ar"/><use transform="matrix(0.05,0,0,0.05,22,0)" xlink:href="#an"/><use transform="matrix(0.05,0,0,0.05,32,0)" xlink:href="#an"/><use transform="matrix(0.05,0,0,0.05,42,0)" xlink:href="#ac"/><use transform="matrix(0.05,0,0,0.05,52,0)" xlink:href="#S"/><use transform="matrix(0.05,0,0,0.05,57.95,0)" xlink:href="#T"/><use transform="matrix(0.05,0,0,0.05,61.900000000000006,0)" xlink:href="#V"/><use transform="matrix(0.05,0,0,0.05,71.9,0)" xlink:href="#ak"/></g><g id="B"><use transform="matrix(0.05,0,0,0.05,0,0)" xlink:href="#X"/><use transform="matrix(0.05,0,0,0.05,10,0)" xlink:href="#ac"/><use transform="matrix(0.05,0,0,0.05,20,0)" xlink:href="#X"/><use transform="matrix(0.05,0,0,0.05,30,0)" xlink:href="#ai"/><use transform="matrix(0.05,0,0,0.05,40,0)" xlink:href="#ad"/><use transform="matrix(0.05,0,0,0.05,49,0)" xlink:href="#Y"/><use transform="matrix(0.05,0,0,0.05,54,0)" xlink:href="#T"/><use transform="matrix(0.05,0,0,0.05,57.95,0)" xlink:href="#ar"/><use transform="matrix(0.05,0,0,0.05,67.95,0)" xlink:href="#ak"/></g><g id="C"><use transform="matrix(0.05,0,0,0.05,0,0)" xlink:href="#X"/><use transform="matrix(0.05,0,0,0.05,10,0)" xlink:href="#ac"/><use transform="matrix(0.05,0,0,0.05,20,0)" xlink:href="#ar"/><use transform="matrix(0.05,0,0,0.05,30,0)" xlink:href="#ak"/><use transform="matrix(0.05,0,0,0.05,40,0)" xlink:href="#Y"/><use transform="matrix(0.05,0,0,0.05,45,0)" xlink:href="#T"/><use transform="matrix(0.05,0,0,0.05,48.95,0)" xlink:href="#ad"/></g><g id="D"><use transform="matrix(0.05,0,0,0.05,0,0)" xlink:href="#an"/><use transform="matrix(0.05,0,0,0.05,10,0)" xlink:href="#ar"/><use transform="matrix(0.05,0,0,0.05,20,0)" xlink:href="#ao"/><use transform="matrix(0.05,0,0,0.05,32.95,0)" xlink:href="#ac"/><use transform="matrix(0.05,0,0,0.05,42.95,0)" xlink:href="#S"/></g><g id="E"><use transform="matrix(0.05,0,0,0.05,0,0)" xlink:href="#V"/><use transform="matrix(0.05,0,0,0.05,10,0)" xlink:href="#al"/><use transform="matrix(0.05,0,0,0.05,20,0)" xlink:href="#ac"/><use transform="matrix(0.05,0,0,0.05,30,0)" xlink:href="#ak"/><use transform="matrix(0.05,0,0,0.05,40,0)" xlink:href="#ad"/><use transform="matrix(0.05,0,0,0.05,49,0)" xlink:href="#W"/></g><path d="M9 0v-24l116-142H16v-24h144v24L44-24h123V0H9" id="au"/><g id="F"><use transform="matrix(0.043209876543209874,0,0,0.043209876543209874,0,0)" xlink:href="#ae"/><use transform="matrix(0.043209876543209874,0,0,0.043209876543209874,7.777777777777778,0)" xlink:href="#T"/><use transform="matrix(0.043209876543209874,0,0,0.043209876543209874,11.191358024691358,0)" xlink:href="#au"/><use transform="matrix(0.043209876543209874,0,0,0.043209876543209874,18.969135802469136,0)" xlink:href="#ai"/><use transform="matrix(0.043209876543209874,0,0,0.043209876543209874,27.61111111111111,0)" xlink:href="#V"/><use transform="matrix(0.043209876543209874,0,0,0.043209876543209874,36.25308641975309,0)" xlink:href="#af"/><use transform="matrix(0.043209876543209874,0,0,0.043209876543209874,39.66666666666667,0)" xlink:href="#T"/><use transform="matrix(0.043209876543209874,0,0,0.043209876543209874,43.080246913580254,0)" xlink:href="#au"/><use transform="matrix(0.043209876543209874,0,0,0.043209876543209874,50.85802469135803,0)" xlink:href="#V"/><use transform="matrix(0.043209876543209874,0,0,0.043209876543209874,59.50000000000001,0)" xlink:href="#Y"/><use transform="matrix(0.043209876543209874,0,0,0.043209876543209874,63.820987654320994,0)" xlink:href="#T"/><use transform="matrix(0.043209876543209874,0,0,0.043209876543209874,67.23456790123457,0)" xlink:href="#ar"/><use transform="matrix(0.043209876543209874,0,0,0.043209876543209874,75.87654320987654,0)" xlink:href="#ak"/></g><path d="M87 75C49 33 22-17 22-94c0-76 28-126 65-167h31c-38 41-64 92-64 168S80 34 118 75H87" id="av"/><path d="M101-251c82-7 93 87 43 132L82-64C71-53 59-42 53-27h129V0H18c2-99 128-94 128-182 0-28-16-43-45-43s-46 15-49 41l-32-3c6-41 34-60 81-64" id="aw"/><path d="M33-261c38 41 65 92 65 168S71 34 33 75H2C39 34 66-17 66-93S39-220 2-261h31" id="ax"/><g id="G"><use transform="matrix(0.043209876543209874,0,0,0.043209876543209874,0,0)" xlink:href="#av"/><use transform="matrix(0.043209876543209874,0,0,0.043209876543209874,5.141975308641975,0)" xlink:href="#al"/><use transform="matrix(0.043209876543209874,0,0,0.043209876543209874,13.78395061728395,0)" xlink:href="#al"/><use transform="matrix(0.043209876543209874,0,0,0.043209876543209874,22.425925925925924,0)" xlink:href="#an"/><use transform="matrix(0.043209876543209874,0,0,0.043209876543209874,31.0679012345679,0)" xlink:href="#af"/><use transform="matrix(0.043209876543209874,0,0,0.043209876543209874,34.48148148148148,0)" xlink:href="#ar"/><use transform="matrix(0.043209876543209874,0,0,0.043209876543209874,43.123456790123456,0)" xlink:href="#Y"/><use transform="matrix(0.043209876543209874,0,0,0.043209876543209874,47.44444444444444,0)" xlink:href="#aw"/><use transform="matrix(0.043209876543209874,0,0,0.043209876543209874,56.08641975308642,0)" xlink:href="#ax"/></g><path d="M205 0l-28-72H64L36 0H1l101-248h38L239 0h-34zm-38-99l-47-123c-12 45-31 82-46 123h93" id="ay"/><g id="H"><use transform="matrix(0.05,0,0,0.05,0,0)" xlink:href="#ay"/><use transform="matrix(0.05,0,0,0.05,12,0)" xlink:href="#ak"/><use transform="matrix(0.05,0,0,0.05,22,0)" xlink:href="#V"/><use transform="matrix(0.05,0,0,0.05,32,0)" xlink:href="#af"/><use transform="matrix(0.05,0,0,0.05,35.95,0)" xlink:href="#W"/><use transform="matrix(0.05,0,0,0.05,44.95,0)" xlink:href="#Y"/><use transform="matrix(0.05,0,0,0.05,49.95,0)" xlink:href="#T"/><use transform="matrix(0.05,0,0,0.05,53.900000000000006,0)" xlink:href="#ad"/><use transform="matrix(0.05,0,0,0.05,62.900000000000006,0)" xlink:href="#V"/><use transform="matrix(0.05,0,0,0.05,72.9,0)" xlink:href="#af"/></g><g id="I"><use transform="matrix(0.05,0,0,0.05,0,0)" xlink:href="#Y"/><use transform="matrix(0.05,0,0,0.05,5,0)" xlink:href="#V"/><use transform="matrix(0.05,0,0,0.05,15,0)" xlink:href="#aq"/><use transform="matrix(0.05,0,0,0.05,24,0)" xlink:href="#ar"/><use transform="matrix(0.05,0,0,0.05,34,0)" xlink:href="#ak"/><use transform="matrix(0.05,0,0,0.05,44,0)" xlink:href="#ar"/><use transform="matrix(0.05,0,0,0.05,54,0)" xlink:href="#U"/><use transform="matrix(0.05,0,0,0.05,68.95,0)" xlink:href="#T"/><use transform="matrix(0.05,0,0,0.05,72.9,0)" xlink:href="#ac"/><use transform="matrix(0.05,0,0,0.05,82.9,0)" xlink:href="#ag"/></g></defs></g></svg>